<svg xmlns="http://www.w3.org/2000/svg" width="100%" height="100%" viewBox="0 0 204 57" fill="none"
  preserveAspectRatio="xMidYMid meet" aria-hidden="true" role="img">
  <path fill-rule="evenodd" clip-rule="evenodd"
    d="M93.3868 0H64.1134C64.1134 0 59.4272 9.75503 52.7976 17.8476C48.3291 23.2745 42.1956 27.0698 35.3511 28.6432C23.5444 31.3746 9.95648 38.5689 1.81348 56.2133H31.091C31.091 56.2133 35.7812 46.4583 42.4109 38.3657C46.8779 32.9372 53.012 29.1415 59.8573 27.5701C71.6559 24.8387 85.2438 17.6444 93.3868 0Z"
    fill="#E52716"></path>
  <path fill-rule="evenodd" clip-rule="evenodd"
    d="M63.7244 0H93.3872L93.2772 0.242403C89.1747 9.04165 83.6992 15.231 77.7634 19.566C72.2963 23.5014 66.0734 26.2831 59.4793 27.739C56.0802 28.5162 52.8323 29.84 49.8646 31.6579C46.9046 33.4685 44.2659 35.7508 42.0547 38.4128C35.4141 46.4202 30.729 56.0881 30.7127 56.1164L30.6679 56.2133H0.907227L1.01722 55.9709C5.11975 47.1717 10.5952 40.9823 16.531 36.6473C21.9973 32.7105 28.2206 29.9287 34.8152 28.4743C38.2138 27.6956 41.4614 26.3719 44.4299 24.5555C47.388 22.744 50.0264 20.4634 52.2397 17.8045C58.8722 9.79309 63.5614 0.125242 63.5736 0.0969613L63.6184 0H63.7244ZM92.8495 0.339365H63.8344C63.3292 1.3615 58.7867 10.4395 52.4923 18.0186C50.2613 20.708 47.5977 23.0136 44.6091 24.8423C41.6088 26.6807 38.3252 28.0195 34.8885 28.8056C28.3409 30.2505 22.1621 33.013 16.7347 36.9221C10.8967 41.1843 5.50678 47.2687 1.445 55.874H30.4601C30.9653 54.8518 35.5078 45.7738 41.7981 38.1947C44.0315 35.5061 46.6962 33.2007 49.6853 31.371C52.6846 29.5334 55.9667 28.1946 59.4018 27.4077C65.951 25.9637 72.1313 23.2011 77.5597 19.2913C83.3978 15.029 88.7877 8.95276 92.8495 0.339365Z"
    fill="#E30016"></path>
  <path fill-rule="evenodd" clip-rule="evenodd"
    d="M91.8677 0C89.3367 4.81803 86.061 9.20747 82.1612 13.0067C75.6251 19.4044 64.2541 27.0255 47.1284 27.0255C29.2863 27.0255 17.4188 34.988 10.5815 41.658C3.60178 48.4865 0.406981 55.2338 0 56.2133H2.40119C4.94653 51.3702 8.24313 46.9598 12.1687 43.1457C18.6804 36.7805 30.0759 29.196 47.1324 29.196C64.9745 29.196 76.8624 21.2334 83.6874 14.5634C90.6549 7.74712 93.8619 1.01615 94.2933 0.00812919L91.8677 0Z"
    fill="white"></path>
  <path fill-rule="evenodd" clip-rule="evenodd"
    d="M87.2395 6.82512C88.8378 4.70155 90.2577 2.44984 91.4848 0.0929413L91.5333 0H94.2933L94.1841 0.238415C92.9217 2.88762 91.4037 5.40761 89.6515 7.76262C87.8321 10.2586 85.8084 12.5996 83.6014 14.7615C78.819 19.4574 73.1558 23.165 66.9361 25.672C60.6337 28.1648 53.9092 29.4215 47.1305 29.3735C40.6969 29.3265 34.3141 30.5131 28.3285 32.8689C22.4258 35.2369 17.0487 38.744 12.505 43.1894C10.1062 45.5364 7.9379 48.1074 6.02992 50.8672C4.85171 52.5451 3.78767 54.3001 2.84499 56.1204L2.79642 56.2133H0L0.109267 55.9749C0.929391 54.2156 1.87615 52.518 2.94211 50.8955C5.16846 47.4764 7.76465 44.3122 10.6839 41.4599C15.4626 36.7633 21.1233 33.0556 27.341 30.5494C33.6435 28.0566 40.368 26.7999 47.1467 26.8479C53.6023 26.8961 60.0068 25.701 66.0094 23.3283C71.9257 20.9515 77.314 17.4319 81.8652 12.9714C83.8129 11.0642 85.6097 9.00935 87.2395 6.82512ZM91.7397 0.359642C90.5176 2.70087 89.1045 4.93766 87.5147 7.04738C85.8717 9.2392 84.0614 11.3008 82.0999 13.2138C77.5203 17.7112 72.0961 21.261 66.1389 23.6596C60.0939 26.0448 53.6463 27.2479 47.1467 27.2035C40.4113 27.1548 33.7295 28.4019 27.4665 30.8767C21.294 33.3642 15.6734 37.043 10.9267 41.7024C8.02567 44.541 5.44703 47.6904 3.23754 51.0935C2.23073 52.6299 1.32631 54.2309 0.530147 55.886H2.55361C3.4943 54.0818 4.55142 52.3405 5.7183 50.6732C7.64827 47.8944 9.8395 45.3059 12.2622 42.9429C16.8399 38.4678 22.2551 34.9362 28.199 32.5497C34.2306 30.174 40.6629 28.9764 47.1467 29.0219C53.882 29.0702 60.5637 27.8231 66.8269 25.3487C72.9991 22.8589 78.6195 19.1789 83.3666 14.519C85.5659 12.3701 87.5828 10.0426 89.3966 7.56057C91.0746 5.29258 92.5404 2.87537 93.7753 0.339438L91.7397 0.359642Z"
    fill="#E30016"></path>
  <path fill-rule="evenodd" clip-rule="evenodd"
    d="M165.676 8.56826C165.525 8.57164 165.375 8.54503 165.235 8.49008C165.095 8.43512 164.968 8.35299 164.862 8.24872C164.753 8.14698 164.668 8.02415 164.611 7.88822C164.554 7.75229 164.528 7.60629 164.533 7.45972C164.531 7.16484 164.649 6.8812 164.862 6.67073C164.967 6.56517 165.094 6.48193 165.234 6.42625C165.374 6.37057 165.524 6.34366 165.676 6.34724C165.827 6.34437 165.977 6.3716 166.117 6.42724C166.257 6.48288 166.383 6.56575 166.489 6.67073C166.596 6.77405 166.681 6.89698 166.739 7.03242C166.797 7.16785 166.827 7.31309 166.826 7.45972C166.831 7.60694 166.803 7.75344 166.745 7.88948C166.687 8.02552 166.599 8.14798 166.489 8.24872C166.382 8.35243 166.256 8.43419 166.116 8.48911C165.976 8.54402 165.826 8.57095 165.676 8.56826ZM164.809 10.1147H166.529V18.9159H164.809V10.1147ZM154.352 10.1147H155.893L156.007 11.1404C156.296 10.7695 156.676 10.474 157.113 10.2804C157.581 10.0793 158.089 9.97841 158.601 9.98451C159.237 9.96839 159.867 10.1153 160.426 10.4106C160.95 10.7092 161.368 11.1548 161.626 11.6887C161.925 12.356 162.064 13.0803 162.032 13.8072V18.9159H160.365V14.0163C160.412 13.3499 160.224 12.6879 159.833 12.1385C159.641 11.9229 159.401 11.7532 159.131 11.6423C158.861 11.5315 158.568 11.4826 158.275 11.4994C157.971 11.4838 157.666 11.5349 157.385 11.6489C157.103 11.7629 156.852 11.937 156.649 12.1582C156.224 12.715 156.015 13.3996 156.059 14.0912V18.9159H154.352V10.1147ZM146.659 16.1347C146.718 16.4429 146.868 16.7278 147.09 16.9553C147.294 17.1563 147.547 17.3042 147.826 17.3853C148.116 17.4758 148.419 17.5211 148.724 17.5194C149.172 17.5456 149.617 17.4352 149.997 17.2038C150.135 17.1196 150.249 17.0033 150.328 16.8655C150.408 16.7277 150.45 16.5728 150.452 16.4148C150.458 16.2936 150.436 16.1726 150.387 16.0608C150.339 15.9489 150.265 15.8488 150.172 15.7679C149.953 15.5903 149.7 15.4562 149.428 15.3734C149.119 15.2787 148.79 15.1958 148.436 15.113C148.082 15.0301 147.781 14.9355 147.411 14.8289C147.047 14.7299 146.698 14.584 146.374 14.395C146.06 14.2235 145.79 13.9847 145.586 13.6967C145.366 13.3703 145.257 12.9856 145.272 12.5961C145.263 12.1009 145.42 11.6161 145.72 11.2153C146.032 10.8067 146.454 10.4889 146.939 10.2962C147.506 10.0723 148.113 9.96228 148.724 9.97268C149.434 9.95826 150.135 10.1242 150.757 10.454C151.345 10.7813 151.797 11.2956 152.038 11.9097L150.493 12.4028C150.415 12.187 150.273 11.9979 150.087 11.8584C149.89 11.7168 149.664 11.6186 149.424 11.5704C149.181 11.5158 148.933 11.4881 148.684 11.4875C148.287 11.4745 147.893 11.5658 147.545 11.7519C147.4 11.8283 147.281 11.943 147.2 12.0826C147.12 12.2222 147.081 12.3811 147.09 12.5409C147.084 12.7063 147.136 12.8689 147.236 13.0024C147.341 13.1363 147.482 13.2399 147.643 13.3022C147.845 13.3872 148.055 13.4558 148.269 13.5074L149.046 13.7007C149.412 13.8072 149.778 13.9216 150.152 14.0478C150.513 14.1656 150.861 14.3203 151.188 14.5094C151.502 14.6928 151.764 14.9473 151.953 15.2511C152.157 15.5939 152.262 15.9835 152.258 16.3793C152.267 16.8696 152.116 17.35 151.827 17.7522C151.504 18.1712 151.07 18.4971 150.57 18.695C149.965 18.9366 149.314 19.0534 148.659 19.0382C147.855 19.063 147.061 18.8601 146.374 18.4544C146.051 18.2512 145.772 17.988 145.554 17.68C145.335 17.372 145.182 17.0251 145.102 16.6594L146.659 16.1347ZM141.682 13.7165C141.689 13.3127 141.576 12.9156 141.357 12.5724C141.139 12.2402 140.837 11.9683 140.479 11.7834C140.096 11.585 139.668 11.4846 139.234 11.4915C138.836 11.4865 138.444 11.5875 138.1 11.7834C137.742 11.9855 137.437 12.2651 137.208 12.6004C136.98 12.9357 136.834 13.3176 136.783 13.7165H141.682ZM139.36 19.0382C138.546 19.0484 137.745 18.838 137.047 18.4307C136.375 18.0409 135.828 17.4784 135.465 16.8054C135.076 16.0745 134.88 15.261 134.896 14.4384C134.88 13.6411 135.071 12.8527 135.453 12.1464C135.817 11.4802 136.364 10.9251 137.034 10.5427C137.704 10.1603 138.47 9.96575 139.247 9.98057C140.036 9.97213 140.815 10.1653 141.503 10.5408C142.145 10.8927 142.672 11.412 143.024 12.0398C143.399 12.7178 143.581 13.4802 143.553 14.249C143.553 14.3911 143.553 14.537 143.553 14.679C143.553 14.8211 143.52 14.9907 143.496 15.1643H136.783C136.809 15.6038 136.948 16.0299 137.189 16.403C137.413 16.7533 137.725 17.0424 138.096 17.2433C138.483 17.4453 138.917 17.5472 139.356 17.5391C139.905 17.553 140.448 17.4351 140.938 17.1959C141.352 17.0037 141.685 16.6772 141.877 16.2728L143.37 16.7857C143.014 17.476 142.455 18.0484 141.763 18.4307C141.034 18.8415 140.204 19.0515 139.36 19.0382ZM125.235 10.1068H126.797L126.906 11.1325C127.199 10.7644 127.58 10.4718 128.016 10.2804C128.483 10.0789 128.99 9.97798 129.5 9.98451C130.138 9.96936 130.769 10.1162 131.33 10.4106C131.861 10.7072 132.286 11.1529 132.55 11.6887C132.847 12.3566 132.986 13.0805 132.957 13.8072V18.9159H131.253V14.0163C131.3 13.3499 131.112 12.6879 130.72 12.1385C130.53 11.923 130.29 11.7532 130.021 11.6424C129.751 11.5315 129.459 11.4826 129.167 11.4994C128.862 11.4838 128.558 11.5349 128.276 11.6489C127.995 11.7629 127.743 11.937 127.541 12.1582C127.114 12.7147 126.903 13.3988 126.943 14.0912V18.9159H125.235V10.1068ZM123.06 11.4639L118.246 17.4366H123.076V18.9159H116.107V17.5549L120.925 11.5862H116.123V10.1068H123.06V11.4639ZM112.838 8.56826C112.687 8.57164 112.537 8.54503 112.397 8.49008C112.258 8.43512 112.131 8.35299 112.025 8.24872C111.916 8.14698 111.83 8.02415 111.774 7.88822C111.717 7.75229 111.69 7.60629 111.696 7.45972C111.694 7.16484 111.812 6.8812 112.025 6.67073C112.13 6.56517 112.257 6.48193 112.397 6.42625C112.536 6.37057 112.687 6.34366 112.838 6.34724C112.989 6.34437 113.139 6.3716 113.279 6.42724C113.419 6.48288 113.546 6.56575 113.651 6.67073C113.758 6.77405 113.844 6.89698 113.901 7.03242C113.959 7.16785 113.989 7.31309 113.989 7.45972C113.993 7.60694 113.966 7.75344 113.908 7.88948C113.849 8.02552 113.762 8.14798 113.651 8.24872C113.545 8.35243 113.418 8.43419 113.278 8.48911C113.139 8.54402 112.989 8.57095 112.838 8.56826ZM111.98 10.1068H113.7V18.9159H111.98V10.1068ZM101.547 17.4366H105.161C105.813 17.4734 106.457 17.2893 106.983 16.9158C107.206 16.7351 107.383 16.506 107.498 16.2469C107.613 15.9879 107.664 15.7062 107.646 15.4246C107.663 15.1383 107.609 14.852 107.488 14.5903C107.367 14.3286 107.183 14.0992 106.951 13.9216C106.411 13.556 105.762 13.373 105.105 13.4009H101.547V17.4366ZM99.7334 18.9159V6.59577H105.121C105.893 6.56983 106.66 6.71981 107.361 7.03367C107.906 7.28503 108.367 7.68014 108.691 8.17376C108.989 8.66291 109.143 9.22271 109.134 9.79121C109.152 10.2723 109.044 10.75 108.821 11.1798C108.623 11.541 108.337 11.8498 107.987 12.0793C107.63 12.3073 107.231 12.4679 106.812 12.5527V12.6789C107.296 12.7378 107.762 12.8908 108.183 13.1287C108.58 13.3569 108.902 13.691 109.11 14.0912C109.345 14.5696 109.46 15.0958 109.443 15.6258C109.449 16.216 109.28 16.7954 108.955 17.2946C108.615 17.8119 108.128 18.2228 107.552 18.4781C106.854 18.7867 106.092 18.9365 105.324 18.9159H99.7334ZM107.321 10.0042C107.334 9.73457 107.285 9.46533 107.177 9.21667C107.069 8.968 106.904 8.74634 106.694 8.56826C106.196 8.19493 105.574 8.01114 104.946 8.05147H101.531V11.9215H104.962C105.585 11.9601 106.2 11.7779 106.694 11.4086C106.902 11.2362 107.066 11.02 107.175 10.7766C107.283 10.5333 107.333 10.2691 107.321 10.0042Z"
    fill="#212121"></path>
  <path fill-rule="evenodd" clip-rule="evenodd"
    d="M196.204 24.4797H197.912V29.3495C198.216 29.0017 198.6 28.7295 199.034 28.5558C199.516 28.354 200.037 28.2539 200.562 28.2621C201.186 28.2505 201.802 28.3997 202.347 28.6947C202.878 28.9964 203.303 29.4473 203.567 29.9885C203.873 30.6597 204.02 31.3895 203.998 32.1238V37.2357H202.201V32.3302C202.246 31.6573 202.062 30.9887 201.676 30.4291C201.491 30.2089 201.254 30.035 200.987 29.9218C200.719 29.8086 200.427 29.7594 200.135 29.7782C199.83 29.7617 199.525 29.8135 199.243 29.9298C198.961 30.046 198.71 30.2236 198.509 30.4489C198.079 31.0215 197.871 31.725 197.924 32.4334V37.2357H196.216L196.204 24.4797ZM188.512 34.4376C188.572 34.7482 188.722 35.0358 188.943 35.2671C189.149 35.4681 189.403 35.6166 189.683 35.6997C189.973 35.7914 190.276 35.837 190.581 35.8347C191.028 35.8622 191.473 35.7496 191.85 35.5132C191.988 35.4293 192.102 35.3124 192.182 35.1736C192.262 35.0348 192.304 34.8785 192.305 34.7194C192.31 34.598 192.288 34.477 192.24 34.365C192.191 34.2531 192.118 34.1532 192.024 34.0725C191.807 33.8915 191.554 33.7564 191.28 33.6756C190.971 33.5804 190.642 33.493 190.288 33.4137L189.264 33.1279C188.903 33.0241 188.556 32.8775 188.231 32.6913C187.907 32.5201 187.628 32.2767 187.418 31.9809C187.2 31.6535 187.092 31.2678 187.109 30.8776C187.097 30.3778 187.254 29.8882 187.556 29.4845C187.869 29.0732 188.29 28.7534 188.776 28.5597C189.344 28.3364 189.952 28.2258 190.565 28.2343C191.275 28.2184 191.976 28.3868 192.598 28.7225C193.185 29.0503 193.637 29.5664 193.878 30.183L192.333 30.6831C192.256 30.4645 192.114 30.2728 191.927 30.1314C191.728 29.9922 191.503 29.8937 191.264 29.8417C191.023 29.7883 190.776 29.7616 190.528 29.7623C190.13 29.7492 189.735 29.8411 189.386 30.0282C189.241 30.1048 189.121 30.22 189.04 30.3606C188.959 30.5011 188.921 30.6611 188.93 30.822C188.925 30.9896 188.976 31.1544 189.077 31.2903C189.184 31.423 189.324 31.5268 189.483 31.592C189.688 31.6762 189.898 31.7452 190.114 31.7983L190.89 31.9928C191.256 32.1 191.618 32.2151 191.996 32.3381C192.356 32.4579 192.702 32.6149 193.029 32.8064C193.341 32.9916 193.604 33.2458 193.797 33.5486C193.999 33.8942 194.103 34.286 194.098 34.6837C194.117 35.173 193.979 35.656 193.704 36.0649C193.379 36.4847 192.945 36.8121 192.447 37.0134C191.841 37.2594 191.189 37.3783 190.532 37.3627C189.728 37.3871 188.935 37.183 188.247 36.7753C187.924 36.5701 187.645 36.3046 187.427 35.9941C187.208 35.6835 187.055 35.334 186.975 34.9655L188.512 34.4376ZM183.771 26.8174C183.62 26.8218 183.47 26.7954 183.33 26.7401C183.19 26.6847 183.063 26.6016 182.958 26.4959C182.849 26.3937 182.764 26.27 182.708 26.1332C182.652 25.9963 182.626 25.8494 182.633 25.7021C182.63 25.4061 182.747 25.121 182.958 24.9084C183.064 24.8029 183.19 24.7197 183.33 24.6637C183.47 24.6078 183.62 24.5803 183.771 24.5829C183.922 24.581 184.072 24.6088 184.212 24.6647C184.351 24.7206 184.478 24.8035 184.584 24.9084C184.691 25.0125 184.776 25.1362 184.834 25.2724C184.892 25.4086 184.922 25.5547 184.922 25.7021C184.927 25.8503 184.899 25.9979 184.841 26.1348C184.783 26.2717 184.695 26.3949 184.584 26.4959C184.478 26.6008 184.352 26.6835 184.212 26.7387C184.072 26.794 183.922 26.8208 183.771 26.8174ZM182.905 28.3772H184.629V37.2357H182.905V28.3772ZM176.038 28.3772H177.599L177.713 29.5678C177.961 29.2669 178.257 29.0081 178.591 28.8018C178.926 28.5937 179.297 28.4458 179.685 28.3653C180.086 28.2755 180.503 28.2755 180.905 28.3653V29.9528C180.526 29.858 180.13 29.8458 179.746 29.9171C179.377 29.9858 179.031 30.1411 178.738 30.3695C178.43 30.6164 178.186 30.9305 178.026 31.2864C177.832 31.7147 177.738 32.1795 177.75 32.6477V37.2357H176.042L176.038 28.3772ZM172.318 26.8174C172.167 26.8218 172.017 26.7954 171.877 26.7401C171.737 26.6847 171.61 26.6016 171.505 26.4959C171.396 26.3939 171.31 26.2704 171.253 26.1335C171.196 25.9967 171.17 25.8497 171.176 25.7021C171.175 25.4056 171.293 25.1206 171.505 24.9084C171.611 24.8029 171.737 24.7197 171.877 24.6637C172.017 24.6078 172.167 24.5803 172.318 24.5829C172.469 24.581 172.619 24.6088 172.759 24.6647C172.898 24.7206 173.025 24.8035 173.131 24.9084C173.238 25.0125 173.323 25.1362 173.381 25.2724C173.439 25.4086 173.469 25.5547 173.469 25.7021C173.474 25.8503 173.446 25.9979 173.388 26.1348C173.33 26.2717 173.242 26.3949 173.131 26.4959C173.025 26.6008 172.899 26.6835 172.759 26.7387C172.619 26.794 172.469 26.8208 172.318 26.8174ZM171.452 28.3772H173.172V37.2357H171.452V28.3772ZM165.28 28.3772V25.8927H167.004V28.3772H169.273V29.8615H167.004V34.2074C166.962 34.6203 167.083 35.0333 167.342 35.3624C167.565 35.5974 167.872 35.7395 168.2 35.7593C168.557 35.7887 168.917 35.7807 169.273 35.7355V37.1722C168.794 37.2755 168.302 37.309 167.813 37.2714C167.359 37.2354 166.918 37.0998 166.524 36.8745C166.13 36.6391 165.814 36.2973 165.614 35.8902C165.374 35.3709 165.26 34.8046 165.28 34.2352V29.8695H163.971V28.3772H165.28ZM154.514 28.3772H156.076L156.189 29.4051C156.482 29.0372 156.861 28.7443 157.295 28.5518C157.763 28.3478 158.271 28.2449 158.783 28.2502C159.42 28.2357 160.05 28.3849 160.609 28.6828C161.133 28.9832 161.551 29.4315 161.808 29.9687C162.105 30.6406 162.244 31.3688 162.215 32.1V37.2357H160.528V32.3103C160.573 31.6394 160.384 30.9734 159.991 30.4211C159.801 30.2032 159.562 30.0315 159.292 29.9199C159.023 29.8082 158.73 29.7597 158.438 29.7782C158.133 29.7604 157.828 29.8109 157.546 29.9257C157.264 30.0406 157.013 30.2168 156.812 30.441C156.385 31.0049 156.179 31.6987 156.23 32.3976V37.2357H154.518L154.514 28.3772ZM150.343 33.1795L147.855 33.4772C147.423 33.5109 147.009 33.6606 146.66 33.9098C146.529 34.0141 146.424 34.1463 146.353 34.2963C146.283 34.4463 146.248 34.61 146.253 34.775C146.252 34.9326 146.288 35.0884 146.358 35.2302C146.429 35.372 146.532 35.496 146.66 35.5926C146.971 35.8295 147.359 35.948 147.753 35.926C148.259 35.9437 148.76 35.8329 149.209 35.6045C149.586 35.4021 149.888 35.0881 150.071 34.7075C150.266 34.2893 150.362 33.8334 150.351 33.374L150.343 33.1795ZM150.489 37.2357L150.343 35.9418C150.084 36.3778 149.711 36.7382 149.262 36.9857C148.729 37.246 148.137 37.3702 147.542 37.3468C146.971 37.3612 146.403 37.2542 145.879 37.0333C145.446 36.8522 145.077 36.5514 144.818 36.1681C144.562 35.7791 144.432 35.3243 144.444 34.8623C144.436 34.5124 144.508 34.1652 144.655 33.846C144.802 33.5268 145.02 33.2435 145.293 33.0168C146.001 32.4721 146.862 32.1522 147.761 32.1L150.339 31.8102V31.1236C150.339 30.9381 150.297 30.7548 150.216 30.5872C150.134 30.4196 150.015 30.272 149.867 30.1552C149.476 29.8663 148.991 29.7254 148.501 29.7583C147.999 29.7452 147.505 29.8839 147.086 30.1552C146.69 30.4209 146.413 30.824 146.31 31.2824L144.781 30.7466C144.989 29.9969 145.47 29.3474 146.135 28.9209C146.861 28.464 147.711 28.2316 148.574 28.2541C149.713 28.2541 150.575 28.532 151.168 29.0876C151.466 29.3736 151.699 29.7174 151.853 30.0968C152.006 30.4762 152.076 30.8828 152.059 31.2903V37.2436L150.489 37.2357ZM140.65 24.4797H142.358V37.2357H140.65V24.4797ZM136.967 26.8174C136.816 26.8218 136.666 26.7954 136.526 26.7401C136.386 26.6847 136.259 26.6016 136.154 26.4959C136.043 26.3947 135.956 26.2714 135.899 26.1345C135.841 25.9975 135.814 25.8501 135.82 25.7021C135.82 25.5549 135.849 25.409 135.906 25.2727C135.963 25.1365 136.047 25.0126 136.154 24.9084C136.259 24.8028 136.386 24.7194 136.526 24.6634C136.666 24.6074 136.816 24.58 136.967 24.5829C137.118 24.5812 137.268 24.6091 137.407 24.665C137.547 24.7209 137.674 24.8037 137.78 24.9084C137.988 25.1223 138.104 25.4069 138.101 25.7021C138.108 25.849 138.082 25.9955 138.027 26.1323C137.972 26.269 137.887 26.3929 137.78 26.4959C137.674 26.6008 137.547 26.6835 137.408 26.7387C137.268 26.794 137.118 26.8208 136.967 26.8174ZM136.109 36.7951C136.153 37.4325 135.959 38.0639 135.564 38.5732C135.361 38.8019 135.112 38.9869 134.832 39.1167C134.552 39.2465 134.248 39.3182 133.938 39.3273L134.21 40.7997C134.832 40.7694 135.436 40.5909 135.971 40.2798C136.532 39.953 136.995 39.4875 137.313 38.9304C137.673 38.2808 137.851 37.5496 137.829 36.811V28.3772H136.101L136.109 36.7951ZM129.559 35.8347C130.034 35.8354 130.501 35.7237 130.921 35.5092C131.359 35.2778 131.721 34.9313 131.966 34.5091C132.229 33.9766 132.365 33.3933 132.365 32.8025C132.365 32.2116 132.229 31.6283 131.966 31.0958C131.729 30.6762 131.373 30.3318 130.942 30.1036C130.521 29.8892 130.054 29.7775 129.58 29.7782C129.121 29.7771 128.669 29.8891 128.266 30.1036C127.844 30.3365 127.499 30.6839 127.274 31.1038C127.001 31.6374 126.869 32.2299 126.892 32.8263C126.869 33.4108 126.999 33.9914 127.27 34.513C127.488 34.9317 127.827 35.2783 128.246 35.5092C128.648 35.7269 129.1 35.8391 129.559 35.8347ZM129.559 37.3627C128.751 37.3757 127.953 37.1814 127.246 36.7991C126.567 36.4297 126.01 35.879 125.64 35.2116C125.254 34.4616 125.055 33.6334 125.058 32.7941C125.062 31.9549 125.268 31.1283 125.66 30.3814C126.041 29.7151 126.604 29.1654 127.287 28.7939C127.999 28.4183 128.798 28.227 129.608 28.2383C130.422 28.2275 131.225 28.4187 131.942 28.7939C132.623 29.1669 133.186 29.7162 133.568 30.3814C133.979 31.1184 134.185 31.9476 134.166 32.7866C134.187 33.6323 133.977 34.4682 133.556 35.2076C133.167 35.8776 132.594 36.4276 131.901 36.7951C131.19 37.1785 130.392 37.3805 129.58 37.3825L129.559 37.3627ZM117 28.3772L119.615 35.4497L122.241 28.3772H124.058L120.521 37.2357H118.667L115.15 28.3772H117ZM112.296 26.8174C112.145 26.822 111.995 26.7958 111.855 26.7404C111.715 26.6851 111.588 26.6018 111.483 26.4959C111.374 26.3939 111.288 26.2704 111.231 26.1335C111.175 25.9967 111.148 25.8497 111.154 25.7021C111.153 25.4056 111.271 25.1206 111.483 24.9084C111.589 24.8028 111.715 24.7194 111.855 24.6634C111.995 24.6074 112.145 24.58 112.296 24.5829C112.449 24.5818 112.6 24.6106 112.74 24.6674C112.881 24.7243 113.008 24.8081 113.115 24.9139C113.222 25.0198 113.306 25.1455 113.363 25.2836C113.419 25.4217 113.446 25.5694 113.443 25.718C113.449 25.8659 113.422 26.0134 113.365 26.1503C113.307 26.2873 113.22 26.4106 113.109 26.5118C113.002 26.6133 112.874 26.6926 112.735 26.7451C112.595 26.7976 112.446 26.8222 112.296 26.8174ZM111.426 28.3772H113.154V37.2357H111.426V28.3772ZM105.616 31.6197L109.137 37.2357H107.104L103.73 31.6197H105.616ZM104.454 24.8369C105.311 24.8043 106.164 24.976 106.938 25.337C107.54 25.6362 108.043 26.0976 108.385 26.6666C108.709 27.237 108.874 27.88 108.865 28.532C108.865 28.9838 108.785 29.4322 108.629 29.8576C108.466 30.3029 108.207 30.7089 107.869 31.0482C107.485 31.4309 107.016 31.7228 106.499 31.9015C105.845 32.1207 105.157 32.2255 104.466 32.2111H101.547V37.2357H99.7334V24.8369H104.454ZM107.031 28.5359C107.047 28.2407 107 27.9456 106.894 27.6685C106.789 27.3915 106.627 27.1383 106.417 26.9246C106.011 26.5277 105.352 26.3213 104.454 26.3213H101.551V30.7307H104.47C104.971 30.7491 105.471 30.6554 105.929 30.4569C106.283 30.2918 106.575 30.0225 106.763 29.6869C106.948 29.3307 107.04 28.9353 107.031 28.5359Z"
    fill="#212121"></path>
  <path fill-rule="evenodd" clip-rule="evenodd"
    d="M142.113 45.0885C141.963 45.0928 141.814 45.0649 141.674 45.0064C141.535 44.9479 141.409 44.8601 141.304 44.7487C141.195 44.6411 141.11 44.5106 141.053 44.3659C140.997 44.2212 140.971 44.0656 140.977 43.9096C140.975 43.7542 141.003 43.6 141.059 43.4559C141.116 43.3118 141.199 43.1809 141.304 43.0706C141.409 42.9585 141.535 42.8701 141.674 42.8109C141.813 42.7517 141.963 42.723 142.113 42.7266C142.263 42.7254 142.412 42.7553 142.55 42.8143C142.689 42.8734 142.815 42.9605 142.921 43.0706C143.134 43.294 143.253 43.5955 143.253 43.9096C143.257 44.0657 143.23 44.2211 143.173 44.3656C143.116 44.5102 143.03 44.6407 142.921 44.7487C142.815 44.8582 142.689 44.9446 142.55 45.003C142.411 45.0613 142.263 45.0904 142.113 45.0885ZM141.248 46.733H142.962V56.0841H141.248V46.733ZM131.266 42.6133H132.98V50.6304H133.74L137.112 46.7162H139.4L135.216 51.4023L139.425 56.0841H137.092L133.74 52.1658H133.001V56.0841H131.287L131.266 42.6133ZM121.139 46.733H122.692L122.805 47.8237C123.092 47.4327 123.468 47.1226 123.901 46.9218C124.365 46.7046 124.87 46.5958 125.38 46.6029C126.014 46.5868 126.641 46.743 127.199 47.056C127.72 47.3763 128.135 47.8513 128.392 48.4195C128.687 49.1283 128.825 49.8966 128.796 50.6681V56.0841H127.102V50.8905C127.149 50.1818 126.962 49.4778 126.573 48.8935C126.383 48.6647 126.145 48.4846 125.877 48.3674C125.609 48.2502 125.319 48.1991 125.029 48.2181C124.726 48.201 124.423 48.2546 124.144 48.3752C123.864 48.4957 123.613 48.6801 123.411 48.9145C122.991 49.5139 122.788 50.2476 122.837 50.9869V56.0841H121.135L121.139 46.733ZM116.992 51.8092L114.513 52.128C114.086 52.1645 113.676 52.3227 113.329 52.5853C113.199 52.6956 113.095 52.8353 113.024 52.9939C112.954 53.1524 112.92 53.3255 112.925 53.4999C112.924 53.6663 112.961 53.8307 113.031 53.9805C113.101 54.1302 113.203 54.2614 113.329 54.3641C113.64 54.6141 114.028 54.7378 114.42 54.7123C114.923 54.7324 115.421 54.6167 115.868 54.3767C116.241 54.1621 116.54 53.8302 116.721 53.4286C116.918 52.9861 117.015 52.5023 117.004 52.0148L116.992 51.8092ZM117.133 56.1009L116.992 54.7291C116.733 55.1875 116.362 55.5667 115.916 55.8282C115.387 56.1048 114.798 56.2362 114.206 56.21C113.637 56.2265 113.072 56.1148 112.549 55.8828C112.119 55.6897 111.754 55.3703 111.498 54.964C111.243 54.5547 111.112 54.0754 111.122 53.588C111.115 53.2167 111.188 52.8484 111.335 52.5097C111.481 52.171 111.699 51.8702 111.971 51.6288C112.677 51.057 113.534 50.7219 114.429 50.6681L116.992 50.3661V49.6403C116.992 49.4431 116.95 49.2483 116.868 49.0704C116.786 48.8924 116.667 48.7359 116.519 48.6125C116.131 48.3081 115.65 48.1591 115.164 48.1929C114.665 48.1791 114.174 48.3256 113.757 48.6125C113.363 48.8914 113.087 49.3162 112.985 49.7997L111.465 49.2375C111.671 48.4435 112.15 47.7553 112.811 47.3035C113.536 46.8281 114.381 46.5885 115.237 46.6155C116.369 46.6155 117.226 46.905 117.816 47.4965C118.112 47.7985 118.343 48.1612 118.496 48.5615C118.648 48.9617 118.718 49.3906 118.702 49.8207V56.1135L117.133 56.1009ZM101.536 54.5277H105.13C105.777 54.5649 106.416 54.371 106.942 53.9781C107.164 53.7851 107.339 53.5406 107.453 53.2645C107.568 52.9884 107.618 52.6882 107.6 52.3882C107.618 52.0836 107.564 51.7792 107.444 51.5009C107.323 51.2226 107.14 50.9786 106.909 50.7898C106.372 50.4025 105.727 50.2094 105.074 50.2402H101.536V54.5277ZM99.7334 56.0841V42.9909H105.09C105.858 42.9622 106.621 43.1232 107.317 43.4607C107.854 43.7197 108.307 44.1353 108.62 44.6568C108.933 45.1783 109.093 45.7831 109.08 46.3974C109.097 46.9076 108.99 47.4141 108.769 47.8699C108.572 48.254 108.287 48.5823 107.94 48.8264C107.585 49.0706 107.189 49.2415 106.772 49.3298V49.4641C107.252 49.5267 107.716 49.6894 108.134 49.9423C108.529 50.1839 108.849 50.5377 109.056 50.9618C109.29 51.4705 109.404 52.0301 109.387 52.5937C109.393 53.2226 109.225 53.84 108.902 54.3725C108.562 54.9206 108.078 55.357 107.507 55.6311C106.812 55.9559 106.055 56.1136 105.292 56.0925L99.7334 56.0841ZM107.277 46.6071C107.29 46.3245 107.243 46.0424 107.138 45.7812C107.033 45.5199 106.873 45.2862 106.671 45.0969C106.175 44.6998 105.557 44.5044 104.932 44.5473H101.536V48.646H104.948C105.56 48.6866 106.166 48.4975 106.654 48.1132C106.86 47.9302 107.023 47.701 107.131 47.443C107.239 47.185 107.289 46.9049 107.277 46.6239V46.6071Z"
    fill="#212121"></path>
</svg>